<mxfile host="app.diagrams.net" modified="2024-06-18T12:51:37.616Z" agent="Mozilla/5.0 (Windows NT 10.0; Win64; x64) AppleWebKit/537.36 (KHTML, like Gecko) Chrome/125.0.0.0 Safari/537.36 Edg/125.0.0.0" etag="pJcf0-scmd0d0ew8XVnp" version="24.5.4" type="github">
  <diagram name="Page-1" id="edf60f1a-56cd-e834-aa8a-f176f3a09ee4">
    <mxGraphModel dx="1386" dy="785" grid="1" gridSize="10" guides="1" tooltips="1" connect="1" arrows="1" fold="1" page="1" pageScale="1" pageWidth="1100" pageHeight="850" background="none" math="0" shadow="0">
      <root>
        <mxCell id="0" />
        <mxCell id="1" parent="0" />
        <mxCell id="3kPSlH7A6RmGdi6usdLc-7" value="" style="edgeStyle=orthogonalEdgeStyle;rounded=0;orthogonalLoop=1;jettySize=auto;html=1;" edge="1" parent="1" source="60e70716793133e9-4" target="3kPSlH7A6RmGdi6usdLc-6">
          <mxGeometry relative="1" as="geometry" />
        </mxCell>
        <mxCell id="60e70716793133e9-4" value="&lt;font style=&quot;font-size: 12px;&quot;&gt;OpenFrame Calculate Natural Frequency API&lt;/font&gt;" style="rounded=0;whiteSpace=wrap;html=1;shadow=1;labelBackgroundColor=none;strokeWidth=1;fontFamily=Verdana;fontSize=8;align=center;" parent="1" vertex="1">
          <mxGeometry x="410" y="120" width="210" height="80" as="geometry" />
        </mxCell>
        <mxCell id="3kPSlH7A6RmGdi6usdLc-3" style="edgeStyle=orthogonalEdgeStyle;rounded=0;orthogonalLoop=1;jettySize=auto;html=1;exitX=0.5;exitY=1;exitDx=0;exitDy=0;exitPerimeter=0;entryX=0.5;entryY=0;entryDx=0;entryDy=0;" edge="1" parent="1" source="3kPSlH7A6RmGdi6usdLc-1" target="60e70716793133e9-4">
          <mxGeometry relative="1" as="geometry" />
        </mxCell>
        <mxCell id="3kPSlH7A6RmGdi6usdLc-1" value="OpenFrame&lt;div&gt;Object&lt;/div&gt;" style="shape=card;whiteSpace=wrap;html=1;" vertex="1" parent="1">
          <mxGeometry x="480" width="80" height="100" as="geometry" />
        </mxCell>
        <mxCell id="3kPSlH7A6RmGdi6usdLc-12" style="edgeStyle=orthogonalEdgeStyle;rounded=0;orthogonalLoop=1;jettySize=auto;html=1;exitX=0.5;exitY=1;exitDx=0;exitDy=0;entryX=0.5;entryY=0;entryDx=0;entryDy=0;fontFamily=Verdana;fontSize=8;fontColor=default;labelBackgroundColor=none;" edge="1" parent="1" source="3kPSlH7A6RmGdi6usdLc-6" target="3kPSlH7A6RmGdi6usdLc-10">
          <mxGeometry relative="1" as="geometry" />
        </mxCell>
        <mxCell id="3kPSlH7A6RmGdi6usdLc-6" value="&lt;span style=&quot;font-size: 13.3333px; text-align: start; white-space-collapse: preserve; background-color: rgb(255, 255, 255);&quot;&gt;&lt;font face=&quot;Verdana&quot;&gt;Get Material Data Using Material Id(1) and Temp(100) API&lt;/font&gt;&lt;/span&gt;" style="whiteSpace=wrap;html=1;fontSize=8;fontFamily=Verdana;rounded=0;shadow=1;labelBackgroundColor=none;strokeWidth=1;strokeColor=default;align=center;verticalAlign=middle;fontColor=default;fillColor=default;" vertex="1" parent="1">
          <mxGeometry x="410" y="240" width="210" height="90" as="geometry" />
        </mxCell>
        <mxCell id="3kPSlH7A6RmGdi6usdLc-10" value="&lt;span style=&quot;font-size: 13.3333px; text-align: start; white-space-collapse: preserve; background-color: rgb(255, 255, 255);&quot;&gt;&lt;font face=&quot;Verdana&quot;&gt;Get Profile Section Designation (&lt;/font&gt;&lt;/span&gt;&lt;span style=&quot;background-color:#ffffff;padding:0px 0px 0px 2px;&quot;&gt;&lt;span style=&quot;font-family: &amp;quot;Courier New&amp;quot;; font-size: 10pt; white-space: pre;&quot;&gt;W14X873)&lt;/span&gt;&lt;/span&gt;" style="whiteSpace=wrap;html=1;fontSize=8;fontFamily=Verdana;rounded=0;shadow=1;labelBackgroundColor=none;strokeWidth=1;strokeColor=default;align=center;verticalAlign=middle;fontColor=default;fillColor=default;" vertex="1" parent="1">
          <mxGeometry x="410" y="360" width="210" height="90" as="geometry" />
        </mxCell>
        <mxCell id="3kPSlH7A6RmGdi6usdLc-14" value="&lt;br&gt;&lt;div style=&quot;&quot;&gt;&lt;font style=&quot;&quot;&gt;&lt;span style=&quot;font-size: 12px;&quot;&gt;FreqAnalysis.Mechanics&lt;/span&gt;&lt;br&gt;&lt;/font&gt;&lt;/div&gt;" style="shape=note;whiteSpace=wrap;html=1;backgroundOutline=1;darkOpacity=0.05;rounded=0;shadow=1;strokeColor=default;strokeWidth=1;align=center;verticalAlign=middle;fontFamily=Verdana;fontSize=8;fontColor=default;labelBackgroundColor=none;fillColor=default;" vertex="1" parent="1">
          <mxGeometry x="890" y="330" width="150" height="140" as="geometry" />
        </mxCell>
        <mxCell id="3kPSlH7A6RmGdi6usdLc-15" value="" style="shape=flexArrow;endArrow=classic;html=1;rounded=0;fontFamily=Verdana;fontSize=8;fontColor=default;labelBackgroundColor=none;width=35;endSize=5.09;" edge="1" parent="1">
          <mxGeometry width="50" height="50" relative="1" as="geometry">
            <mxPoint x="630" y="404.5" as="sourcePoint" />
            <mxPoint x="890" y="404.5" as="targetPoint" />
          </mxGeometry>
        </mxCell>
        <mxCell id="3kPSlH7A6RmGdi6usdLc-16" value="&lt;font style=&quot;text-wrap: wrap; font-size: 12px;&quot;&gt;C:\opt\oofem\out&lt;/font&gt;&lt;span style=&quot;font-size: 12px; text-wrap: wrap; background-color: initial;&quot;&gt;adminSeleniumTest9&lt;/span&gt;&lt;div style=&quot;text-wrap: wrap;&quot;&gt;&lt;div style=&quot;font-size: 12px;&quot;&gt;\OF1\FREQ\&lt;span style=&quot;background-color: initial;&quot;&gt;2024060703261424&lt;/span&gt;&lt;/div&gt;&lt;/div&gt;" style="edgeLabel;html=1;align=center;verticalAlign=middle;resizable=0;points=[];rounded=0;shadow=1;strokeColor=default;strokeWidth=1;fontFamily=Verdana;fontSize=8;fontColor=default;labelBackgroundColor=none;fillColor=default;" vertex="1" connectable="0" parent="3kPSlH7A6RmGdi6usdLc-15">
          <mxGeometry x="-0.7636" y="3" relative="1" as="geometry">
            <mxPoint x="94" y="4" as="offset" />
          </mxGeometry>
        </mxCell>
        <mxCell id="3kPSlH7A6RmGdi6usdLc-17" value="&lt;font style=&quot;font-size: 14px;&quot;&gt;Solver (oofem.json.exe)&lt;/font&gt;" style="icon;html=1;image=img/clipart/Gear_128x128.png;rounded=0;shadow=1;strokeColor=default;strokeWidth=1;align=center;verticalAlign=middle;fontFamily=Verdana;fontSize=8;fontColor=default;labelBackgroundColor=none;fillColor=default;" vertex="1" parent="1">
          <mxGeometry x="920" y="570" width="90" height="90" as="geometry" />
        </mxCell>
        <mxCell id="3kPSlH7A6RmGdi6usdLc-18" value="" style="shape=flexArrow;endArrow=classic;html=1;rounded=0;fontFamily=Verdana;fontSize=8;fontColor=default;labelBackgroundColor=none;" edge="1" parent="1">
          <mxGeometry width="50" height="50" relative="1" as="geometry">
            <mxPoint x="960" y="480" as="sourcePoint" />
            <mxPoint x="960" y="560" as="targetPoint" />
          </mxGeometry>
        </mxCell>
        <mxCell id="3kPSlH7A6RmGdi6usdLc-19" value="&lt;div style=&quot;&quot;&gt;&lt;font style=&quot;&quot;&gt;&lt;font style=&quot;font-size: 12px;&quot;&gt;EigenValueAnalysis*&lt;/font&gt;&lt;/font&gt;&lt;/div&gt;&lt;div style=&quot;&quot;&gt;&lt;font style=&quot;&quot;&gt;&lt;font style=&quot;font-size: 12px;&quot;&gt;openFrame.id()*.out.csv&lt;/font&gt;&lt;br&gt;&lt;/font&gt;&lt;/div&gt;" style="shape=note;whiteSpace=wrap;html=1;backgroundOutline=1;darkOpacity=0.05;rounded=0;shadow=1;strokeColor=default;strokeWidth=1;align=center;verticalAlign=middle;fontFamily=Verdana;fontSize=8;fontColor=default;labelBackgroundColor=none;fillColor=default;" vertex="1" parent="1">
          <mxGeometry x="445" y="500" width="150" height="140" as="geometry" />
        </mxCell>
        <mxCell id="3kPSlH7A6RmGdi6usdLc-20" value="" style="shape=flexArrow;endArrow=classic;html=1;rounded=0;fontFamily=Verdana;fontSize=8;fontColor=default;labelBackgroundColor=none;width=42;endSize=15;endWidth=48;" edge="1" parent="1">
          <mxGeometry width="50" height="50" relative="1" as="geometry">
            <mxPoint x="910" y="590" as="sourcePoint" />
            <mxPoint x="620" y="590" as="targetPoint" />
            <Array as="points">
              <mxPoint x="760" y="590" />
            </Array>
          </mxGeometry>
        </mxCell>
        <mxCell id="3kPSlH7A6RmGdi6usdLc-21" value="&lt;font style=&quot;text-wrap: wrap; font-size: 12px;&quot;&gt;C:\opt\oofem\out&lt;/font&gt;&lt;span style=&quot;text-wrap: wrap; background-color: initial; font-size: 12px;&quot;&gt;adminSeleniumTest9&lt;/span&gt;&lt;div style=&quot;text-wrap: wrap;&quot;&gt;&lt;div style=&quot;font-size: 12px;&quot;&gt;\OF1\FREQ\&lt;span style=&quot;background-color: initial;&quot;&gt;2024060703261424&lt;/span&gt;&lt;/div&gt;&lt;/div&gt;" style="edgeLabel;html=1;align=center;verticalAlign=middle;resizable=0;points=[];rounded=0;shadow=1;strokeColor=default;strokeWidth=1;fontFamily=Verdana;fontSize=8;fontColor=default;labelBackgroundColor=none;fillColor=default;" vertex="1" connectable="0" parent="3kPSlH7A6RmGdi6usdLc-20">
          <mxGeometry x="0.24" y="-4" relative="1" as="geometry">
            <mxPoint x="40" y="4" as="offset" />
          </mxGeometry>
        </mxCell>
        <mxCell id="3kPSlH7A6RmGdi6usdLc-22" value="&lt;font style=&quot;font-size: 12px;&quot;&gt;FreqOutput&lt;/font&gt;" style="shape=card;whiteSpace=wrap;html=1;rounded=0;shadow=1;strokeColor=default;strokeWidth=1;align=center;verticalAlign=middle;fontFamily=Verdana;fontSize=8;fontColor=default;labelBackgroundColor=none;fillColor=default;" vertex="1" parent="1">
          <mxGeometry x="480" y="680" width="80" height="100" as="geometry" />
        </mxCell>
        <mxCell id="3kPSlH7A6RmGdi6usdLc-27" style="edgeStyle=orthogonalEdgeStyle;rounded=0;orthogonalLoop=1;jettySize=auto;html=1;exitX=0.5;exitY=1;exitDx=0;exitDy=0;exitPerimeter=0;entryX=0.5;entryY=0;entryDx=0;entryDy=0;entryPerimeter=0;fontFamily=Verdana;fontSize=8;fontColor=default;labelBackgroundColor=none;" edge="1" parent="1" source="3kPSlH7A6RmGdi6usdLc-19" target="3kPSlH7A6RmGdi6usdLc-22">
          <mxGeometry relative="1" as="geometry" />
        </mxCell>
      </root>
    </mxGraphModel>
  </diagram>
</mxfile>
